<svg width="24" height="24" viewBox="0 0 24 24" fill="none" xmlns="http://www.w3.org/2000/svg">
<path d="M12 24C18.6274 24 24 18.6274 24 12C24 5.37258 18.6274 0 12 0C5.37258 0 0 5.37258 0 12C0 18.6274 5.37258 24 12 24Z" fill="#F0F0F0"/>
<path d="M24 12C24 7.24245 21.2314 3.1317 17.2174 1.1907V22.8092C21.2314 20.8683 24 16.7575 24 12Z" fill="#D80027"/>
<path d="M0 12C0 16.7575 2.76867 20.8683 6.78263 22.8093V1.1907C2.76867 3.1317 0 7.24245 0 12Z" fill="#D80027"/>
<path d="M14.0869 13.5652L16.1739 12.5217L15.1304 12V10.9565L13.0435 12L14.0869 9.91298H13.0435L12 8.34778L10.9565 9.91298H9.913L10.9565 12L8.86952 10.9565V12L7.82608 12.5217L9.913 13.5652L9.39128 14.6086H11.4783V16.1738H12.5217V14.6086H14.6087L14.0869 13.5652Z" fill="#D80027"/>
</svg>
