<svg width="24" height="24" viewBox="0 0 24 24" fill="none" xmlns="http://www.w3.org/2000/svg">
<path d="M12 24C18.6274 24 24 18.6274 24 12C24 5.37258 18.6274 0 12 0C5.37258 0 0 5.37258 0 12C0 18.6274 5.37258 24 12 24Z" fill="#D80027"/>
<path d="M6.56719 7.30304L7.60312 10.4905H10.9547L8.24531 12.464L9.28125 15.6515L6.56719 13.6827L3.85313 15.6515L4.89375 12.464L2.17969 10.4905H5.53125L6.56719 7.30304Z" fill="#FFDA44"/>
<path d="M14.2265 18.5859L13.4344 17.6109L12.2625 18.0656L12.9422 17.0109L12.15 16.0312L13.3641 16.3546L14.0484 15.3L14.114 16.5562L15.3328 16.8796L14.1562 17.3296L14.2265 18.5859Z" fill="#FFDA44"/>
<path d="M15.8016 15.7265L16.1766 14.5265L15.15 13.8L16.4062 13.7812L16.7766 12.5812L17.1844 13.7718L18.4406 13.7578L17.4328 14.5078L17.8359 15.6984L16.8094 14.9718L15.8016 15.7265Z" fill="#FFDA44"/>
<path d="M17.925 8.80774L17.3719 9.93743L18.2719 10.814L17.0297 10.6359L16.4766 11.7609L16.2609 10.5234L15.0141 10.3452L16.1297 9.75931L15.9141 8.51712L16.8141 9.39368L17.925 8.80774Z" fill="#FFDA44"/>
<path d="M14.2593 5.38589L14.1656 6.63746L15.3328 7.1109L14.1093 7.4109L14.0203 8.66714L13.3593 7.5984L12.1359 7.8984L12.9468 6.93746L12.2812 5.87339L13.4484 6.34683L14.2593 5.38589Z" fill="#FFDA44"/>
</svg>
