<svg xmlns="http://www.w3.org/2000/svg" xmlns:xlink="http://www.w3.org/1999/xlink" width="24" height="24" fill="none"><path d="M12 24c6.627 0 12-5.373 12-12S18.627 0 12 0 0 5.373 0 12s5.373 12 12 12z" fill="#0c1c8c"/><g fill="#fc0"><use xlink:href="#B"/><use xlink:href="#C"/><use xlink:href="#C" x="8.823" y="-8.676"/><path d="M3.397 10.677l.33 1.011h1.067l-.863.625.33 1.011-.864-.625-.863.625.33-1.011L2 11.687h1.067l.33-1.011z"/><use xlink:href="#D"/><use xlink:href="#C" x="4.412" y="-16.324"/><use xlink:href="#C" x="4.412" y="-1.176"/><use xlink:href="#B" x="7.647" y="13.088"/><use xlink:href="#D" y="-15.148"/><use xlink:href="#C" x="7.647" y="-13.088"/><use xlink:href="#B" x="-7.5" y="13.088"/><use xlink:href="#C" x="-7.5" y="-13.088"/></g><defs ><path id="B" d="M12.074 2l.33.955h1.067l-.863.59.33.955-.864-.59-.863.59.33-.955-.863-.59h1.067l.33-.955z"/><path id="C" d="M12.074 19.353l.33 1.011h1.067l-.863.625.33 1.011-.864-.625-.863.625.33-1.011-.863-.625h1.067l.33-1.011z"/><path id="D" d="M7.735 18.177l.312 1.011h1.011l-.818.625.312 1.011-.818-.625-.818.625.312-1.011-.818-.625h1.011l.313-1.011z"/></defs></svg>