<svg width="24" height="24" viewBox="0 0 24 24" fill="none" xmlns="http://www.w3.org/2000/svg">
<circle cx="12" cy="12" r="11.5" fill="#F5F7FD" stroke="#A0B3F2"/>
<path d="M11.6655 15H12.5135L10.2575 9.328H9.3535L7.0975 15H7.9375L8.5375 13.416H11.0495L11.6655 15ZM9.7855 10.144L10.7695 12.688H8.8175L9.7855 10.144ZM12.7175 15.208C12.8135 16.032 13.5335 16.64 14.4935 16.64C15.9415 16.64 16.4215 15.688 16.4215 14.712V11.152H15.6775V11.688C15.4855 11.304 15.0855 11.08 14.4935 11.08C13.4375 11.08 12.7255 11.912 12.7255 12.952C12.7255 14.04 13.4695 14.816 14.4935 14.816C15.0695 14.816 15.4855 14.536 15.6695 14.184V14.736C15.6695 15.568 15.3015 15.984 14.4935 15.984C13.9095 15.984 13.5015 15.576 13.4455 15.04L12.7175 15.208ZM14.6055 14.184C13.9255 14.184 13.4935 13.704 13.4935 12.952C13.4935 12.208 13.9415 11.72 14.6055 11.72C15.2535 11.72 15.7015 12.208 15.7015 12.952C15.7015 13.696 15.2535 14.184 14.6055 14.184Z" fill="#375BD2"/>
</svg>
