<svg width="24" height="24" viewBox="0 0 24 24" fill="none" xmlns="http://www.w3.org/2000/svg">
<circle cx="12" cy="12" r="11.5" fill="#F5F7FD" stroke="#A0B3F2"/>
<path d="M11.7749 15H12.6229L10.3669 9.328H9.46288L7.20687 15H8.04687L8.64688 13.416H11.1589L11.7749 15ZM9.89488 10.144L10.8789 12.688H8.92687L9.89488 10.144ZM15.5179 14.536C15.5179 14.696 15.5339 14.912 15.5499 15H16.2699C16.2539 14.864 16.2299 14.592 16.2299 14.288V11.152H15.4779V13.472C15.4779 14.056 15.1739 14.456 14.5659 14.456C13.9339 14.456 13.6939 13.992 13.6939 13.464V11.152H12.9419V13.576C12.9419 14.448 13.4859 15.12 14.3819 15.12C14.8299 15.12 15.3099 14.936 15.5179 14.536Z" fill="#375BD2"/>
</svg>
